# AST/ASF file generated using VICON BodyLanguage
# -----------------------------------------------
:version 1.10
:name VICON
:units
  mass 1.0
  length 0.45
  angle deg
:documentation
   .ast/.asf automatically generated from VICON data using
   VICON BodyBuilder and BodyLanguage model FoxedUp or BRILLIANT.MOD
:root
   order TX TY TZ RX RY RZ
   axis XYZ
   position 0 0 0  
   orientation 0 0 0 
:bonedata
  begin
     id 1 
     name lhipjoint
     direction 0.78388 -0.462562 0.414208 
     length 3.01181 
     axis 0 0 0  XYZ
  end
  begin
     id 2 
     name lfemur
     direction 0.34202 -0.939693 0  
     length 6.04673  
     axis 0 0 20  XYZ
    dof rx ry rz
    limits (-160.0 20.0)
           (-70.0 70.0)
           (-60.0 70.0)
  end
  begin
     id 3 
     name ltibia
     direction 0.34202 -0.939693 0   
     length 7.211   
     axis 0 0 20   XYZ
    dof rx
    limits (-10.0 170.0)
  end
  begin
     id 4 
     name lfoot
     direction 0.121887 -0.334882 0.934344   
     length 2.13567   
     axis -90 7.62852e-016 20   XYZ
    dof rx rz
    limits (-45.0 90.0)
           (-70.0 20.0)
  end
  begin
     id 5 
     name ltoes
     direction 1.53555e-011 -4.2179e-011 1   
     length 1.05957   
     axis -90 7.62852e-016 20   XYZ
    dof rx
    limits (-90.0 20.0)
  end
  begin
     id 6 
     name rhipjoint
     direction -0.769387 -0.475875 0.426129   
     length 2.92756  
     axis 0 0 0  XYZ 
  end
  begin
     id 7 
     name rfemur
     direction -0.34202 -0.939693 0   
     length 6.35468   
     axis 0 0 -20   XYZ
    dof rx ry rz
    limits (-160.0 20.0)
           (-70.0 70.0)
           (-70.0 60.0)
  end
  begin
     id 8 
     name rtibia
     direction -0.34202 -0.939693 0   
     length 7.37886   
     axis 0 0 -20   XYZ
    dof rx
    limits (-10.0 170.0)
 end
 begin
     id 9 
     name rfoot
     direction -0.101763 -0.279592 0.954711   
     length 2.21478  
     axis -90 -7.62852e-016 -20   XYZ
    dof rx rz
    limits (-45.0 90.0)
           (-20.0 70.0)
  end
  begin
     id 10 
     name rtoes
     direction -1.53494e-011 -4.21851e-011 1   
     length 1.10506   
     axis -90 -7.62852e-016 -20   XYZ
    dof rx
    limits (-90.0 20.0)
  end
  begin
     id 11 
     name lowerback
     direction 0.00747405 0.999267 0.0375481   
     length 2.13259   
     axis 0 0 0   XYZ
    dof rx ry rz
    limits (-20.0 45.0)
           (-30.0 30.0)
           (-30.0 30.0)
  end
  begin
     id 12 
     name upperback
     direction 0.00661626 0.996177 0.0871029   
     length 2.10528   
     axis 0 0 0   XYZ
    dof rx ry rz
    limits (-20.0 45.0)
           (-30.0 30.0)
           (-30.0 30.0)
  end
  begin
     id 13 
     name thorax
     direction 0.00320659 0.997679 0.0680167   
     length 2.11338   
     axis 0 0 0   XYZ
    dof rx ry rz
    limits (-20.0 45.0)
           (-30.0 30.0)
           (-30.0 30.0)
  end
  begin
     id 14 
     name lowerneck
     direction 0.0374841 0.973033 0.227602   
     length 1.42765   
     axis 0 0 0   XYZ
    dof rx ry rz
    limits (-20.0 45.0)
           (-30.0 30.0)
           (-30.0 30.0)
  end
  begin
     id 15 
     name upperneck
     direction 0.00481585 0.989155 -0.146795   
     length 1.47593   
     axis 0 0 0   XYZ
    dof rx ry rz
    limits (-20.0 45.0)
           (-30.0 30.0)
           (-30.0 30.0)
  end
  begin
     id 16
     name head
     direction -0.00292522 0.997206 -0.0746423  
     length 1.48116  
     axis 0 0 0   XYZ
    dof rx ry rz
    limits (-20.0 45.0)
           (-30.0 30.0)
           (-30.0 30.0)
  end
  begin
     id 17 
     name lclavicle
     direction 0.951444 0.305606 0.0368784  
     length 3.01855  
     axis 0 0 0   XYZ
    dof ry rz
    limits (-20.0 10.0)
           (0.0 20.0)
  end
  begin
     id 18 
     name lhumerus
     direction 1 -4.48977e-011 2.61664e-027   
     length 5.52731   
     axis 180 -30 -90   XYZ
    dof rx ry rz
    limits (-60.0 90.0)
           (-90.0 90.0)
           (-90.0 90.0)
  end
  begin
     id 19
     name lradius
     direction 1 -4.48944e-011 8.22157e-027   
     length 3.11059   
     axis 180 -30 -90   XYZ
    dof rx
    limits (-10.0 170.0)
  end
  begin
     id 20
     name lwrist
     direction 1 -4.48976e-011 1.5779e-026   
     length 1.5553   
     axis -1.15221e-014 90 90   XYZ
    dof ry
    limits (-180.0 0.0)
 end
  begin
     id 21 
     name lhand
     direction 1 -4.49025e-011 3.1558e-026   
     length 0.419626   
     axis -2.01367e-014 90 90   XYZ
    dof rx rz
    limits (-90.0 90.0)
           (-45.0 45.0)
  end
  begin
     id 22 
     name lfingers
     direction 1 -4.4904e-011 6.31161e-026   
     length 0.338313   
     axis -4.02734e-014 90 90   XYZ
    dof rx
    limits (0.0 90.0)
  end
  begin
     id 23
     name lthumb
     direction 0.707107 -6.35004e-011 0.707107   
     length 0.485752   
     axis -90 45 2.85299e-015   XYZ
    dof rx rz
    limits (-45.0 45.0)
           (-45.0 45.0)
  end
  begin
     id 24 
     name rclavicle
     direction -0.968876 0.223791 0.105816   
     length 3.04177  
     axis 0 0 0   XYZ 
    dof ry rz
    limits (-10.0 20.0)
           (-20.0 0.0)
  end
  begin
     id 25 
     name rhumerus
     direction -1 -4.48962e-011 -1.01384e-027  
     length 5.25396   
     axis 180 30 90   XYZ
    dof rx ry rz
    limits (-90.0 60.0)
           (-90.0 90.0)
           (-90.0 90.0)
  end
  begin
     id 26 
     name rradius
     direction -1 -4.48955e-011 8.88542e-027   
     length 3.10567   
     axis 180 30 90   XYZ
    dof rx
    limits (-10.0 170.0)
  end
  begin
     id 27 
     name rwrist
     direction -1 -4.48994e-011 1.5779e-026   
     length 1.55283   
     axis -1.15221e-014 -90 -90   XYZ
    dof ry
    limits (-180.0 0.0)
  end
  begin
     id 28
     name rhand
     direction -1 -4.48891e-011 3.1558e-026   
     length 0.498676   
     axis -2.01367e-014 -90 -90   XYZ
    dof rx rz
    limits (-90.0 90.0)
           (-45.0 45.0)
  end
  begin
     id 29
     name rfingers
     direction -1 -4.48972e-011 6.31161e-026   
     length 0.402045   
     axis -4.02734e-014 -90 -90   XYZ
    dof rx
    limits (0.0 90.0)
  end
  begin
     id 30
     name rthumb
     direction -0.707107 -6.34849e-011 0.707107   
     length 0.577259   
     axis -90 -45 -2.85299e-015   XYZ
    dof rx rz
    limits (-45.0 45.0)
           (-45.0 45.0)
  end
:hierarchy
  begin
    root lhipjoint rhipjoint lowerback
    lhipjoint lfemur
    lfemur ltibia
    ltibia lfoot
    lfoot ltoes
    rhipjoint rfemur
    rfemur rtibia
    rtibia rfoot
    rfoot rtoes
    lowerback upperback
    upperback thorax
    thorax lowerneck lclavicle rclavicle
    lowerneck upperneck
    upperneck head
    lclavicle lhumerus
    lhumerus lradius
    lradius lwrist
    lwrist lhand lthumb
    lhand lfingers
    rclavicle rhumerus
    rhumerus rradius
    rradius rwrist
    rwrist rhand rthumb
    rhand rfingers
  end

#!OML:ASF H:\Pregnant\Project 1\Capture day 1\Session 1\femalepreg.ASF
:FULLY-SPECIFIED
:DEGREES
86
root 7.20284 15.7642 24.9667 23.5073 -84.0416 -5.86144
lowerback -22.6496 0.880278 -0.922598
upperback -6.45801 0.971747 -0.730033
thorax 5.55559 0.282858 -0.0190338
lowerneck -26.6846 2.23274 3.66003
upperneck 30.4109 -0.27436 4.17679
head 15.1455 0.845578 1.04627
rclavicle 1.94312e-014 1.66979e-014
rhumerus -4.56384 -24.8887 -47.5997
rradius 124.022
rwrist 21.5659
rhand -59.9046 38.8621
rfingers 7.12502
rthumb -32.061 11.6684
lclavicle 1.94312e-014 1.66979e-014
lhumerus -41.6699 -16.7763 91.5021
lradius 31.7295
lwrist 41.9556
lhand -27.2198 -4.42088
lfingers 7.12502
lthumb -0.632357 25.5579
rfemur -23.7056 21.9336 12.5999
rtibia 25.5532
rfoot -15.4598 -23.5076
rtoes -7.79358
lfemur 0 0 0
ltibia 0
lfoot 0 0
ltoes 0
87
root 7.20243 15.7643 24.9651 23.4885 -84.0332 -5.84181
lowerback -22.6596 0.907336 -0.932676
upperback -6.4462 1.01312 -0.768942
thorax 5.57382 0.303106 -0.0440456
lowerneck -26.7161 2.20168 3.63541
upperneck 30.3904 -0.349178 4.28222
head 15.145 0.827116 1.07947
rclavicle 6.48535e-015 -8.34896e-015
rhumerus -4.54633 -24.0401 -47.7298
rradius 124.828
rwrist 13.9875
rhand -59.015 30.6485
rfingers 7.12502
rthumb -31.2136 3.28793
lclavicle 6.48535e-015 -8.34896e-015
lhumerus -41.6186 -16.7855 91.4708
lradius 31.7563
lwrist 41.864
lhand -27.1887 -4.45504
lfingers 7.12502
lthumb -0.602356 25.5239
rfemur -23.7041 21.9346 12.6064
rtibia 25.5552
rfoot -15.4681 -23.5112
rtoes -7.75782
lfemur 0 0 0
ltibia 0
lfoot 0 0
ltoes 0
88
root 7.202 15.7644 24.9633 23.4417 -84.0248 -5.79039
lowerback -22.6686 0.926519 -0.951029
upperback -6.44206 1.04502 -0.802712
thorax 5.58303 0.318522 -0.0613741
lowerneck -26.7299 2.17757 3.61332
upperneck 30.372 -0.412213 4.38225
head 15.1415 0.812807 1.11212
rclavicle -1.04362e-014 1.27222e-014
rhumerus -4.4678 -23.2208 -47.87
rradius 125.799
rwrist 5.73328
rhand -58.4313 23.4885
rfingers 7.12502
rthumb -30.6572 -3.97776
lclavicle -1.04362e-014 1.27222e-014
lhumerus -41.5669 -16.7413 91.4205
lradius 31.7569
lwrist 41.7401
lhand -27.1534 -4.49326
lfingers 7.12502
lthumb -0.568275 25.4857
rfemur -23.7093 21.9451 12.6063
rtibia 25.5612
rfoot -15.4807 -23.5228
rtoes -7.70432
lfemur 0 0 0
ltibia 0
lfoot 0 0
ltoes 0
89
root 7.20148 15.7646 24.9614 23.3884 -84.0168 -5.73005
lowerback -22.6787 0.942569 -0.971009
upperback -6.44346 1.07274 -0.837416
thorax 5.58681 0.331723 -0.0799236
lowerneck -26.7309 2.15874 3.60412
upperneck 30.3572 -0.469893 4.47349
head 15.137 0.800737 1.13987
rclavicle 3.97569e-016 -5.96354e-015
rhumerus -4.3329 -22.5202 -48.0097
rradius 126.901
rwrist -2.99856
rhand -58.2297 17.5918
rfingers 7.12502
rthumb -30.4649 -9.91028
lclavicle 3.97569e-016 -5.96354e-015
lhumerus -41.5258 -16.6907 91.3646
lradius 31.7486
lwrist 41.6277
lhand -27.1276 -4.53387
lfingers 7.12502
lthumb -0.543364 25.4452
rfemur -23.7184 21.9648 12.603
rtibia 25.5684
rfoot -15.4924 -23.5438
rtoes -7.65365
lfemur 0 0 0
ltibia 0
lfoot 0 0
ltoes 0
90
root 7.20098 15.7647 24.9594 23.3306 -84.0076 -5.66331
lowerback -22.6891 0.958057 -0.988695
upperback -6.45006 1.09893 -0.875002
thorax 5.58517 0.344033 -0.103335
lowerneck -26.7218 2.14501 3.61166
upperneck 30.3489 -0.522629 4.55066
head 15.1333 0.790478 1.15985
rclavicle -9.44227e-016 1.27222e-014
rhumerus -4.14201 -22.0255 -48.1413
rradius 128.073
rwrist -12.0095
rhand -58.4753 12.2631
rfingers 7.12502
rthumb -30.6991 -15.1953
lclavicle -9.44227e-016 1.27222e-014
lhumerus -41.5097 -16.675 91.3243
lradius 31.7496
lwrist 41.5642
lhand -27.13 -4.56413
lfingers 7.12502
lthumb -0.545639 25.4149
rfemur -23.7298 21.9838 12.5989
rtibia 25.5758
rfoot -15.4983 -23.5685
rtoes -7.62295
lfemur 0 0 0
ltibia 0
lfoot 0 0
ltoes 0
91
root 7.20054 15.7648 24.9575 23.3227 -83.9942 -5.6438
lowerback -22.7008 0.968759 -1.00091
upperback -6.46201 1.11676 -0.906767
thorax 5.57848 0.352155 -0.125847
lowerneck -26.7033 2.13891 3.6266
upperneck 30.3493 -0.562817 4.61454
head 15.1314 0.784301 1.17562
rclavicle 4.52732e-014 2.14687e-014
rhumerus -3.88373 -21.7851 -48.267
rradius 129.241
rwrist -21.0474
rhand -59.067 6.99945
rfingers 7.12502
rthumb -31.2632 -20.3515
lclavicle 4.52732e-014 2.14687e-014
lhumerus -41.5308 -16.7082 91.3191
lradius 31.7736
lwrist 41.5829
lhand -27.1553 -4.57779
lfingers 7.12502
lthumb -0.570064 25.4012
rfemur -23.7428 21.9986 12.601
rtibia 25.5808
rfoot -15.4979 -23.5931
rtoes -7.61949
lfemur 0 0 0
ltibia 0
lfoot 0 0
ltoes 0
92
root 7.20013 15.7649 24.9557 23.3158 -83.9804 -5.62374
lowerback -22.7149 0.976 -1.01292
upperback -6.4771 1.12938 -0.933758
thorax 5.56946 0.357647 -0.144726
lowerneck -26.6797 2.13877 3.64497
upperneck 30.36 -0.591579 4.66567
head 15.1328 0.781445 1.18793
rclavicle 1.55549e-014 1.51076e-014
rhumerus -3.571 -21.8213 -48.3945
rradius 130.324
rwrist -29.7449
rhand -59.8478 1.81827
rfingers 7.12502
rthumb -32.0069 -25.3863
lclavicle 1.55549e-014 1.51076e-014
lhumerus -41.5686 -16.7541 91.3332
lradius 31.8014
lwrist 41.6476
lhand -27.1942 -4.57848
lfingers 7.12502
lthumb -0.607626 25.4004
rfemur -23.7555 22.0095 12.6024
rtibia 25.5822
rfoot -15.4963 -23.6137
rtoes -7.62181
lfemur 0 0 0
ltibia 0
lfoot 0 0
ltoes 0
93
root 7.19971 15.7651 24.954 23.3484 -83.9658 -5.64193
lowerback -22.731 0.974615 -1.02727
upperback -6.49682 1.12965 -0.943434
thorax 5.55606 0.357041 -0.146895
lowerneck -26.647 2.14492 3.64724
upperneck 30.3831 -0.600352 4.70694
head 15.1372 0.78361 1.20304
rclavicle 2.88735e-014 -1.94809e-014
rhumerus -3.20823 -22.0876 -48.5261
rradius 131.24
rwrist -37.6402
rhand -60.6369 -3.40416
rfingers 7.12502
rthumb -32.7579 -30.4551
lclavicle 2.88735e-014 -1.94809e-014
lhumerus -41.6168 -16.7668 91.3644
lradius 31.8192
lwrist 41.7237
lhand -27.2332 -4.57247
lfingers 7.12502
lthumb -0.645322 25.4063
rfemur -23.7679 22.0129 12.6089
rtibia 25.58
rfoot -15.4871 -23.6303
rtoes -7.65187
lfemur 0 0 0
ltibia 0
lfoot 0 0
ltoes 0
94
root 7.19926 15.7652 24.9524 23.4194 -83.9502 -5.69711
lowerback -22.7513 0.964329 -1.04612
upperback -6.51989 1.11777 -0.935374
thorax 5.54069 0.35045 -0.130599
lowerneck -26.6074 2.15701 3.6338
upperneck 30.4206 -0.590524 4.73934
head 15.1462 0.790453 1.22109
rclavicle 3.03147e-015 -6.75868e-015
rhumerus -2.82848 -22.4732 -48.6718
rradius 131.929
rwrist -44.1506
rhand -61.2409 -8.49833
rfingers 7.12502
rthumb -33.3324 -35.4278
lclavicle 3.03147e-015 -6.75868e-015
lhumerus -41.6825 -16.7741 91.4266
lradius 31.839
lwrist 41.8403
lhand -27.279 -4.55312
lfingers 7.12502
lthumb -0.689564 25.4255
rfemur -23.7804 22.0087 12.6205
rtibia 25.5757
rfoot -15.4761 -23.6409
rtoes -7.67991
lfemur 0 0 0
ltibia 0
lfoot 0 0
ltoes 0
95
root 7.1987 15.7654 24.9509 23.4753 -83.9373 -5.73788
lowerback -22.7739 0.945025 -1.07397
upperback -6.54573 1.09489 -0.91308
thorax 5.52302 0.338433 -0.0967484
lowerneck -26.563 2.17331 3.6066
upperneck 30.4728 -0.566554 4.7649
head 15.1603 0.800635 1.24174
rclavicle -6.95746e-016 -4.77083e-015
rhumerus -2.47132 -22.8506 -48.8347
rradius 132.357
rwrist -48.7642
rhand -61.4697 -13.2047
rfingers 7.12502
rthumb -33.5499 -40.0873
lclavicle -6.95746e-016 -4.77083e-015
lhumerus -41.7138 -16.6544 91.45
lradius 31.7965
lwrist 41.8522
lhand -27.2965 -4.54838
lfingers 7.12502
lthumb -0.706476 25.4302
rfemur -23.7917 22.0061 12.6292
rtibia 25.5703
rfoot -15.4683 -23.6512
rtoes -7.69182
lfemur 0 0 0
ltibia 0
lfoot 0 0
ltoes 0
96
root 7.19812 15.7656 24.9495 23.5219 -83.9264 -5.77149
lowerback -22.7961 0.920115 -1.10794
upperback -6.57384 1.0652 -0.881248
thorax 5.50246 0.323076 -0.0509566
lowerneck -26.5164 2.19277 3.57023
upperneck 30.5403 -0.533181 4.78575
head 15.1807 0.813038 1.26421
rclavicle 5.71506e-015 1.98785e-015
rhumerus -2.18515 -23.0863 -48.9995
rradius 132.513
rwrist -51.0712
rhand -61.1879 -17.0271
rfingers 7.12502
rthumb -33.282 -43.9674
lclavicle 5.71506e-015 1.98785e-015
lhumerus -41.7487 -16.5116 91.4799
lradius 31.7428
lwrist 41.8641
lhand -27.2976 -4.54005
lfingers 7.12502
lthumb -0.707497 25.4385
rfemur -23.8009 21.9905 12.6396
rtibia 25.5661
rfoot -15.4628 -23.6478
rtoes -7.70376
lfemur 0 0 0
ltibia 0
lfoot 0 0
ltoes 0
97
root 7.19751 15.7658 24.9481 23.5593 -83.9185 -5.79837
lowerback -22.8178 0.896378 -1.14175
upperback -6.60291 1.0371 -0.852388
thorax 5.48062 0.308475 -0.00805282
lowerneck -26.4725 2.21228 3.5388
upperneck 30.6211 -0.503996 4.80759
head 15.208 0.824478 1.28579
rclavicle 8.05078e-015 -9.54166e-015
rhumerus -2.01792 -23.1168 -49.149
rradius 132.399
rwrist -50.9066
rhand -60.2621 -19.5402
rfingers 7.12502
rthumb -32.4013 -46.6648
lclavicle 8.05078e-015 -9.54166e-015
lhumerus -41.7817 -16.3672 91.5027
lradius 31.676
lwrist 41.8753
lhand -27.2898 -4.53102
lfingers 7.12502
lthumb -0.699973 25.4476
rfemur -23.8085 21.9782 12.6488
rtibia 25.5638
rfoot -15.4612 -23.6433
rtoes -7.70457
lfemur 0 0 0
ltibia 0
lfoot 0 0
ltoes 0
98
root 7.19694 15.7659 24.9469 23.5653 -83.9123 -5.79743
lowerback -22.8386 0.883191 -1.16672
upperback -6.62957 1.02236 -0.843334
thorax 5.46152 0.30039 0.0120233
lowerneck -26.4421 2.22744 3.52801
upperneck 30.7128 -0.494902 4.83492
head 15.2439 0.830952 1.30259
rclavicle -1.87355e-014 1.86858e-014
rhumerus -2.00547 -22.9442 -49.2716
rradius 132.02
rwrist -48.3641
rhand -58.728 -20.3492
rfingers 7.12502
rthumb -30.9401 -47.7621
lclavicle -1.87355e-014 1.86858e-014
lhumerus -41.805 -16.2558 91.5069
lradius 31.5975
lwrist 41.8925
lhand -27.2693 -4.51797
lfingers 7.12502
lthumb -0.680176 25.4607
rfemur -23.8127 21.9549 12.6577
rtibia 25.5636
rfoot -15.4591 -23.6276
rtoes -7.71217
lfemur 0 0 0
ltibia 0
lfoot 0 0
ltoes 0
99
root 7.19644 15.766 24.9457 23.5983 -83.9045 -5.82686
lowerback -22.8581 0.878982 -1.17855
upperback -6.6539 1.01764 -0.849497
thorax 5.44482 0.297227 0.0108587
lowerneck -26.4231 2.23948 3.53645
upperneck 30.8116 -0.502401 4.86608
head 15.2865 0.833503 1.31476
rclavicle -2.88238e-015 1.19271e-015
rhumerus -2.137 -22.6136 -49.3579
rradius 131.388
rwrist -43.7687
rhand -56.6714 -19.5941
rfingers 7.12502
rthumb -28.9777 -47.3617
lclavicle -2.88238e-015 1.19271e-015
lhumerus -41.827 -16.1944 91.5052
lradius 31.5174
lwrist 41.9413
lhand -27.2427 -4.50164
lfingers 7.12502
lthumb -0.654455 25.4771
rfemur -23.8132 21.9274 12.6723
rtibia 25.5636
rfoot -15.4583 -23.6069
rtoes -7.71903
lfemur 0 0 0
ltibia 0
lfoot 0 0
ltoes 0
100
root 7.19604 15.766 24.9447 23.629 -83.8971 -5.85676
lowerback -22.8777 0.882143 -1.18385
upperback -6.67397 1.02239 -0.8692
thorax 5.43313 0.29872 -0.00607945
lowerneck -26.4181 2.24878 3.56186
upperneck 30.9141 -0.524789 4.90145
head 15.3344 0.832712 1.32317
rclavicle -1.60022e-014 -7.15625e-015
rhumerus -2.38791 -22.2063 -49.4112
rradius 130.532
rwrist -37.5945
rhand -54.3269 -17.5576
rfingers 7.12502
rthumb -26.7362 -45.6885
lclavicle -1.60022e-014 -7.15625e-015
lhumerus -41.8334 -16.1566 91.4873
lradius 31.4254
lwrist 41.9964
lhand -27.2107 -4.48336
lfingers 7.12502
lthumb -0.623559 25.4955
rfemur -23.8096 21.8941 12.6887
rtibia 25.5611
rfoot -15.4569 -23.5778
rtoes -7.72395
lfemur 0 0 0
ltibia 0
lfoot 0 0
ltoes 0
